# xmcd CD database file
#
# Track frame offsets:
#	150
#	30233
#	58643
#	77600
#	96973
#	122823
#	142053
#	164850
#	189753
#
# Disc length: 2756 seconds
#
# Revision: 0
# Processed by: cddbd v1.4PL0 Copyright (c) Steve Scherf et al.
# Submitted via: CDex 1.50Beta5
#
DISCID=740ac209
DTITLE=Frank Foster and Frank Wess - Two For The Blues
DYEAR=1983
DGENRE=Jazz
TTITLE0=Two For The Blues
TTITLE1=Send In The Clowns
TTITLE2=Your Beauty Is A Song Of Love
TTITLE3=But For The Likes Of You
TTITLE4=Heat Of Winter
TTITLE5=Nancy With The Laughing Face
TTITLE6=Spring Can Really Hang You Up The Most
TTITLE7=A Time For Love
TTITLE8=Bay Street
EXTD=YEAR: 1983
EXTT0=
EXTT1=
EXTT2=
EXTT3=
EXTT4=
EXTT5=
EXTT6=
EXTT7=
EXTT8=
PLAYORDER=
